/vscmnt/brussel_pixiu_data/_data_brussel/112/vsc11236/PredSimResults/SUBJ06opt3D/weighted-LRposFixed/trackIG/worker_05.mot
version=1
nRows=10
nColumns=50
inDegrees=yes
endheader
                time	         pelvis_tilt	         pelvis_list	     pelvis_rotation	           pelvis_tx	           pelvis_ty	           pelvis_tz	       hip_flexion_r	     hip_adduction_r	      hip_rotation_r	        knee_angle_r	       ankle_angle_r	         mtp_angle_r	       hip_flexion_l	     hip_adduction_l	      hip_rotation_l	        knee_angle_l	       ankle_angle_l	         mtp_angle_l	    lumbar_extension	      lumbar_bending	     lumbar_rotation	 ercspn_r/activation	 intobl_r/activation	 extobl_r/activation	    abd_r/activation	    add_r/activation	hamstrings_r/activation	bifemsh_r/activation	glut_max_r/activation	iliopsoas_r/activation	rect_fem_r/activation	  vasti_r/activation	gastroc_r/activation	 soleus_r/activation	tib_ant_r/activation	 ercspn_l/activation	 intobl_l/activation	 extobl_l/activation	    abd_l/activation	    add_l/activation	hamstrings_l/activation	bifemsh_l/activation	glut_max_l/activation	iliopsoas_l/activation	rect_fem_l/activation	  vasti_l/activation	gastroc_l/activation	 soleus_l/activation	tib_ant_l/activation	
          0.65106543	         -5.87615881	          0.74837940	         -3.36390455	          0.64455478	          0.93320089	          0.01183847	         -8.44382653	         -0.20987449	         -6.37539426	        -11.22032839	         10.12582670	         31.34107224	         31.10457260	         -0.79668632	         -4.97940357	         -8.16230093	         -0.37118777	          0.22472739	         -4.76001882	          0.61620748	          7.90090092	          0.13109035	          0.00999999	          0.00999999	          0.10495739	          0.00999999	          0.00999999	          0.27418029	          0.01254760	          0.63331370	          0.01481141	          0.00999999	          0.23994272	          0.40674570	          0.02227641	          0.18183093	          0.15630572	          0.00999999	          0.00999999	          0.37440368	          0.05924098	          0.07128255	          0.02111935	          0.12389755	          0.01586737	          0.00999999	          0.00999999	          0.00999999	          0.47871468	
          0.66408674	         -5.99734635	          0.67405084	         -3.33243520	          0.66054238	          0.93132051	          0.01058972	         -8.82519038	         -0.29859371	         -6.82988577	        -12.08717649	          9.38367916	         33.12376775	         31.34513698	         -0.65432786	         -4.68535570	        -10.07376037	         -0.57311999	          0.19821449	         -4.38759668	          0.25657060	          8.43555599	          0.14158346	          0.00999999	          0.00999999	          0.08624118	          0.00999999	          0.00999999	          0.25659585	          0.01031009	          0.63191860	          0.01217021	          0.00999999	          0.22436148	          0.38928317	          0.01830404	          0.16420068	          0.12843296	          0.00999999	          0.00999999	          0.37958964	          0.06932253	          0.05857130	          0.03815243	          0.10180389	          0.01303787	          0.00999999	          0.01481142	          0.01802580	          0.48786128	
          0.67710805	         -6.09500038	          0.64977071	         -3.28703684	          0.67697725	          0.92970202	          0.00926620	         -9.07007246	         -0.47524713	         -7.26847041	        -13.27633009	          8.50051460	         34.99543546	         31.39055940	         -0.51233892	         -4.35242194	        -11.78631210	         -0.82133534	          0.19100910	         -3.99046324	         -0.16662293	          8.92546289	          0.13854186	          0.00999999	          0.00999999	          0.07086247	          0.00999999	          0.00999999	          0.23567566	          0.00999999	          0.60350913	          0.00999999	          0.00999999	          0.18435288	          0.36565334	          0.01504002	          0.14675694	          0.10553053	          0.00999999	          0.00999999	          0.31190044	          0.07441038	          0.04812675	          0.07076038	          0.08365001	          0.01071293	          0.01844598	          0.01217022	          0.01481141	          0.53025369	
          0.69012936	         -6.17051487	          0.66255832	         -3.22063217	          0.69366783	          0.92841518	          0.00781163	         -9.12139484	         -0.73432645	         -7.70999627	        -14.85942037	          7.43877106	         36.95750773	         31.28362701	         -0.35178681	         -4.21145436	        -13.24617874	         -1.22742593	          0.17271821	         -3.59339339	         -0.62871609	          9.36013973	          0.15408822	          0.00999999	          0.00999999	          0.05822613	          0.00999999	          0.01918310	          0.20733092	          0.00999999	          0.53749598	          0.00999999	          0.00999999	          0.15147870	          0.33876805	          0.01235806	          0.13109775	          0.08671211	          0.00999999	          0.02296558	          0.26953253	          0.07928046	          0.03954469	          0.05814224	          0.06873337	          0.00999999	          0.09243822	          0.01000000	          0.01217021	          0.57819456	
          0.70315067	         -6.22506084	          0.71641270	         -3.13556076	          0.71045476	          0.92757305	          0.00623495	         -8.94167027	         -1.08613753	         -8.16508221	        -16.86464331	          6.12849850	         39.00263602	         31.03864306	         -0.17021997	         -4.25175911	        -14.51730198	         -1.48153828	          0.13746726	         -3.21313761	         -1.13047334	          9.73742071	          0.18390018	          0.00999999	          0.00999999	          0.04784313	          0.00999999	          0.02199000	          0.18425549	          0.00999999	          0.44248828	          0.00999999	          0.00999999	          0.12446671	          0.29504070	          0.01015434	          0.13479321	          0.07124943	          0.00999999	          0.07794280	          0.24773360	          0.07731740	          0.03249300	          0.07352304	          0.05647669	          0.00999999	          0.15291700	          0.00999999	          0.00999999	          0.60772074	
          0.71617198	         -6.26045523	          0.80746630	         -3.03570884	          0.72715687	          0.92734841	          0.00455839	         -8.50097229	         -1.53170226	         -8.63490689	        -19.29650226	          4.49055167	         41.05445997	         30.66918084	          0.04102336	         -4.38566058	        -15.67562707	         -1.23075938	          0.13734685	         -2.86394951	         -1.66450894	         10.05676549	          0.21725126	          0.00999999	          0.00999999	          0.03931165	          0.01000000	          0.07719384	          0.16041441	          0.00999999	          0.36358287	          0.00999999	          0.00999999	          0.10227155	          0.24242844	          0.00999999	          0.13110642	          0.05854409	          0.00999999	          0.13769146	          0.20608475	          0.07634476	          0.02669878	          0.06041226	          0.04640565	          0.00999999	          0.23127249	          0.00999999	          0.00999999	          0.56010859	
          0.72919329	         -6.28071122	          0.92824796	         -2.92866892	          0.74357152	          0.92791319	          0.00280903	         -7.77157797	         -2.06817108	         -9.11036558	        -22.15065636	          2.50304619	         42.87934592	         30.16383161	          0.29872648	         -4.48767063	        -16.69111235	         -0.36439810	          0.30162680	         -2.55942838	         -2.21864553	         10.32312892	          0.24176070	          0.00999999	          0.00999999	          0.03230151	          0.12981630	          0.13468575	          0.16014255	          0.00999999	          0.29874803	          0.00999999	          0.00999999	          0.08403428	          0.19919811	          0.00999999	          0.12183492	          0.04810439	          0.00999999	          0.17776690	          0.18724767	          0.07216911	          0.02193780	          0.05763911	          0.03813050	          0.00999999	          0.28436981	          0.00999999	          0.00999999	          0.46885063	
          0.74221459	         -6.28976933	          1.05238030	         -2.81579567	          0.75953855	          0.92933826	          0.00102350	         -6.74517588	         -2.66873681	         -9.59288788	        -25.40489066	          0.26633265	         44.01995034	         29.48663615	          0.58719093	         -4.51443881	        -17.41087259	          0.72997983	          0.66133685	         -2.31087552	         -2.76155863	         10.53677763	          0.24704866	          0.00999999	          0.00999999	          0.02654144	          0.20994592	          0.16526130	          0.14349543	          0.00999999	          0.24547467	          0.00999999	          0.00999999	          0.06904912	          0.16367669	          0.00999999	          0.11917057	          0.03952631	          0.00999999	          0.19445795	          0.18494272	          0.07223832	          0.01802581	          0.04736079	          0.03133099	          0.00999999	          0.29143267	          0.00999999	          0.00999999	          0.38663529	
          0.75523590	         -6.28942545	          1.14630779	         -2.69667652	          0.77500133	          0.93153320	         -0.00075445	         -5.43737966	         -3.30279005	        -10.09011434	        -29.04608444	         -1.98377890	         43.90324137	         28.62395519	          0.86557996	         -4.49338767	        -17.74014718	          1.69199624	          1.12811445	         -2.12173253	         -3.25713836	         10.69464779	          0.24554560	          0.00999999	          0.00999999	          0.02180852	          0.22908164	          0.16815900	          0.11791025	          0.00999999	          0.20170113	          0.00999999	          0.00999999	          0.05673614	          0.13448953	          0.00999999	          0.11621286	          0.03247790	          0.00999999	          0.19586035	          0.17626578	          0.07466430	          0.01481141	          0.03891532	          0.02574399	          0.00999999	          0.27639319	          0.00999999	          0.00999999	          0.32953913	
          0.76825721	         -6.27947286	          1.18644371	         -2.56924862	          0.78997150	          0.93432001	         -0.00249407	         -3.89809569	         -3.94383866	        -10.58575458	        -32.93970571	         -4.34963220	         42.67472430	         27.59977380	          1.10185821	         -4.44174592	        -17.71290964	          2.45225300	          1.61822917	         -1.99060967	         -3.68101004	         10.79141201	          0.23995528	          0.00999999	          0.00999999	          0.01791958	          0.23986003	          0.16511032	          0.11982687	          0.00999999	          0.16573337	          0.00999999	          0.00999999	          0.04661883	          0.11050708	          0.00999999	          0.11230251	          0.02668638	          0.00999999	          0.18708785	          0.14667459	          0.07718231	          0.01217021	          0.04297488	          0.02115327	          0.00999999	          0.24784068	          0.00999999	          0.00999999	          0.29254069	
